<svg width="240" height="50" viewBox="0 0 240 50" fill="none" xmlns="http://www.w3.org/2000/svg">
<path d="M56.1628 36L51.4828 18.12H55.5148L59.0428 33.096H57.9628L61.6828 18.12H65.5228L69.2428 33.096H68.1628L71.6908 18.12H75.7228L71.0428 36H66.7228L62.9788 21.6H64.2268L60.4828 36H56.1628ZM82.8976 36.288C81.5056 36.288 80.2976 35.984 79.2736 35.376C78.2496 34.752 77.4576 33.92 76.8976 32.88C76.3376 31.84 76.0576 30.688 76.0576 29.424C76.0576 28.112 76.3456 26.944 76.9216 25.92C77.5136 24.896 78.3056 24.088 79.2976 23.496C80.2896 22.904 81.4096 22.608 82.6576 22.608C83.6976 22.608 84.6176 22.776 85.4176 23.112C86.2176 23.432 86.8896 23.888 87.4336 24.48C87.9936 25.072 88.4176 25.76 88.7056 26.544C88.9936 27.312 89.1376 28.152 89.1376 29.064C89.1376 29.32 89.1216 29.576 89.0896 29.832C89.0736 30.072 89.0336 30.28 88.9696 30.456H79.1536V27.816H86.9296L85.2256 29.064C85.3856 28.376 85.3776 27.768 85.2016 27.24C85.0256 26.696 84.7136 26.272 84.2656 25.968C83.8336 25.648 83.2976 25.488 82.6576 25.488C82.0336 25.488 81.4976 25.64 81.0496 25.944C80.6016 26.248 80.2656 26.696 80.0416 27.288C79.8176 27.88 79.7296 28.6 79.7776 29.448C79.7136 30.184 79.8016 30.832 80.0416 31.392C80.2816 31.952 80.6496 32.392 81.1456 32.712C81.6416 33.016 82.2416 33.168 82.9456 33.168C83.5856 33.168 84.1296 33.04 84.5776 32.784C85.0416 32.528 85.4016 32.176 85.6576 31.728L88.5376 33.096C88.2816 33.736 87.8736 34.296 87.3136 34.776C86.7696 35.256 86.1216 35.632 85.3696 35.904C84.6176 36.16 83.7936 36.288 82.8976 36.288ZM91.2575 36V17.832H94.8575V36H91.2575ZM103.924 36.288C102.612 36.288 101.428 35.992 100.372 35.4C99.3319 34.792 98.4999 33.968 97.8759 32.928C97.2679 31.888 96.9639 30.72 96.9639 29.424C96.9639 28.128 97.2679 26.968 97.8759 25.944C98.4839 24.904 99.3159 24.088 100.372 23.496C101.428 22.904 102.612 22.608 103.924 22.608C104.9 22.608 105.804 22.776 106.636 23.112C107.468 23.448 108.18 23.92 108.772 24.528C109.364 25.12 109.788 25.824 110.044 26.64L106.924 27.984C106.7 27.328 106.316 26.808 105.772 26.424C105.244 26.04 104.628 25.848 103.924 25.848C103.3 25.848 102.74 26 102.244 26.304C101.764 26.608 101.38 27.032 101.092 27.576C100.82 28.12 100.684 28.744 100.684 29.448C100.684 30.152 100.82 30.776 101.092 31.32C101.38 31.864 101.764 32.288 102.244 32.592C102.74 32.896 103.3 33.048 103.924 33.048C104.644 33.048 105.268 32.856 105.796 32.472C106.324 32.088 106.7 31.568 106.924 30.912L110.044 32.28C109.804 33.048 109.388 33.736 108.796 34.344C108.204 34.952 107.492 35.432 106.66 35.784C105.828 36.12 104.916 36.288 103.924 36.288ZM118.668 36.288C117.372 36.288 116.188 35.992 115.116 35.4C114.06 34.808 113.212 34 112.572 32.976C111.948 31.936 111.636 30.76 111.636 29.448C111.636 28.12 111.948 26.944 112.572 25.92C113.212 24.896 114.06 24.088 115.116 23.496C116.188 22.904 117.372 22.608 118.668 22.608C119.964 22.608 121.14 22.904 122.196 23.496C123.252 24.088 124.092 24.896 124.716 25.92C125.356 26.944 125.676 28.12 125.676 29.448C125.676 30.76 125.356 31.936 124.716 32.976C124.092 34 123.252 34.808 122.196 35.4C121.14 35.992 119.964 36.288 118.668 36.288ZM118.668 33.048C119.324 33.048 119.892 32.896 120.372 32.592C120.868 32.288 121.252 31.864 121.524 31.32C121.812 30.776 121.956 30.152 121.956 29.448C121.956 28.744 121.812 28.128 121.524 27.6C121.252 27.056 120.868 26.632 120.372 26.328C119.892 26.008 119.324 25.848 118.668 25.848C118.012 25.848 117.436 26.008 116.94 26.328C116.444 26.632 116.052 27.056 115.764 27.6C115.492 28.128 115.356 28.744 115.356 29.448C115.356 30.152 115.492 30.776 115.764 31.32C116.052 31.864 116.444 32.288 116.94 32.592C117.436 32.896 118.012 33.048 118.668 33.048ZM127.797 36V22.896H131.157V26.088L130.797 25.56C130.989 24.552 131.453 23.808 132.189 23.328C132.925 22.848 133.805 22.608 134.829 22.608C135.917 22.608 136.869 22.888 137.685 23.448C138.517 23.992 139.037 24.728 139.245 25.656L138.213 25.752C138.645 24.68 139.261 23.888 140.061 23.376C140.861 22.864 141.797 22.608 142.869 22.608C143.813 22.608 144.645 22.816 145.365 23.232C146.101 23.648 146.677 24.232 147.093 24.984C147.509 25.72 147.717 26.584 147.717 27.576V36H144.117V28.344C144.117 27.832 144.021 27.392 143.829 27.024C143.653 26.656 143.397 26.368 143.061 26.16C142.725 25.952 142.317 25.848 141.837 25.848C141.373 25.848 140.965 25.952 140.613 26.16C140.277 26.368 140.013 26.656 139.821 27.024C139.645 27.392 139.557 27.832 139.557 28.344V36H135.957V28.344C135.957 27.832 135.861 27.392 135.669 27.024C135.493 26.656 135.237 26.368 134.901 26.16C134.565 25.952 134.157 25.848 133.677 25.848C133.213 25.848 132.805 25.952 132.453 26.16C132.117 26.368 131.853 26.656 131.661 27.024C131.485 27.392 131.397 27.832 131.397 28.344V36H127.797ZM156.398 36.288C155.006 36.288 153.798 35.984 152.774 35.376C151.75 34.752 150.958 33.92 150.398 32.88C149.838 31.84 149.558 30.688 149.558 29.424C149.558 28.112 149.846 26.944 150.422 25.92C151.014 24.896 151.806 24.088 152.798 23.496C153.79 22.904 154.91 22.608 156.158 22.608C157.198 22.608 158.118 22.776 158.918 23.112C159.718 23.432 160.39 23.888 160.934 24.48C161.494 25.072 161.918 25.76 162.206 26.544C162.494 27.312 162.638 28.152 162.638 29.064C162.638 29.32 162.622 29.576 162.59 29.832C162.574 30.072 162.534 30.28 162.47 30.456H152.654V27.816H160.43L158.726 29.064C158.886 28.376 158.878 27.768 158.702 27.24C158.526 26.696 158.214 26.272 157.766 25.968C157.334 25.648 156.798 25.488 156.158 25.488C155.534 25.488 154.998 25.64 154.55 25.944C154.102 26.248 153.766 26.696 153.542 27.288C153.318 27.88 153.23 28.6 153.278 29.448C153.214 30.184 153.302 30.832 153.542 31.392C153.782 31.952 154.15 32.392 154.646 32.712C155.142 33.016 155.742 33.168 156.446 33.168C157.086 33.168 157.63 33.04 158.078 32.784C158.542 32.528 158.902 32.176 159.158 31.728L162.038 33.096C161.782 33.736 161.374 34.296 160.814 34.776C160.27 35.256 159.622 35.632 158.87 35.904C158.118 36.16 157.294 36.288 156.398 36.288ZM169.334 36V18.12H172.934L179.63 27H177.95L184.454 18.12H188.054V36H184.334V22.224L185.822 22.56L178.934 31.44H178.454L171.806 22.56L173.054 22.224V36H169.334ZM195.017 36.288C194.073 36.288 193.257 36.136 192.569 35.832C191.881 35.528 191.353 35.096 190.985 34.536C190.617 33.96 190.433 33.28 190.433 32.496C190.433 31.76 190.601 31.112 190.937 30.552C191.273 29.976 191.785 29.496 192.473 29.112C193.177 28.728 194.049 28.456 195.089 28.296L199.097 27.648V30.288L195.737 30.888C195.225 30.984 194.833 31.152 194.561 31.392C194.289 31.616 194.153 31.944 194.153 32.376C194.153 32.776 194.305 33.088 194.609 33.312C194.913 33.536 195.289 33.648 195.737 33.648C196.329 33.648 196.849 33.52 197.297 33.264C197.745 33.008 198.089 32.664 198.329 32.232C198.585 31.784 198.713 31.296 198.713 30.768V27.36C198.713 26.864 198.513 26.448 198.113 26.112C197.729 25.776 197.201 25.608 196.529 25.608C195.889 25.608 195.321 25.784 194.825 26.136C194.345 26.488 193.993 26.952 193.769 27.528L190.889 26.16C191.145 25.424 191.553 24.792 192.113 24.264C192.673 23.736 193.345 23.328 194.129 23.04C194.913 22.752 195.769 22.608 196.697 22.608C197.801 22.608 198.777 22.808 199.625 23.208C200.473 23.608 201.129 24.168 201.593 24.888C202.073 25.592 202.313 26.416 202.313 27.36V36H198.953V33.888L199.769 33.744C199.385 34.32 198.961 34.8 198.497 35.184C198.033 35.552 197.513 35.824 196.937 36C196.361 36.192 195.721 36.288 195.017 36.288ZM211.03 36.144C209.446 36.144 208.214 35.72 207.334 34.872C206.47 34.008 206.038 32.808 206.038 31.272V26.016H203.83V22.896H203.95C204.622 22.896 205.134 22.728 205.486 22.392C205.854 22.056 206.038 21.552 206.038 20.88V19.92H209.638V22.896H212.71V26.016H209.638V31.032C209.638 31.48 209.718 31.856 209.878 32.16C210.038 32.448 210.286 32.664 210.622 32.808C210.958 32.952 211.374 33.024 211.87 33.024C211.982 33.024 212.11 33.016 212.254 33C212.398 32.984 212.55 32.968 212.71 32.952V36C212.47 36.032 212.198 36.064 211.894 36.096C211.59 36.128 211.302 36.144 211.03 36.144ZM221.132 36.288C219.74 36.288 218.532 35.984 217.508 35.376C216.484 34.752 215.692 33.92 215.132 32.88C214.572 31.84 214.292 30.688 214.292 29.424C214.292 28.112 214.58 26.944 215.156 25.92C215.748 24.896 216.54 24.088 217.532 23.496C218.524 22.904 219.644 22.608 220.892 22.608C221.932 22.608 222.852 22.776 223.652 23.112C224.452 23.432 225.124 23.888 225.668 24.48C226.228 25.072 226.652 25.76 226.94 26.544C227.228 27.312 227.372 28.152 227.372 29.064C227.372 29.32 227.356 29.576 227.324 29.832C227.308 30.072 227.268 30.28 227.204 30.456H217.388V27.816H225.164L223.46 29.064C223.62 28.376 223.612 27.768 223.436 27.24C223.26 26.696 222.948 26.272 222.5 25.968C222.068 25.648 221.532 25.488 220.892 25.488C220.268 25.488 219.732 25.64 219.284 25.944C218.836 26.248 218.5 26.696 218.276 27.288C218.052 27.88 217.964 28.6 218.012 29.448C217.948 30.184 218.036 30.832 218.276 31.392C218.516 31.952 218.884 32.392 219.38 32.712C219.876 33.016 220.476 33.168 221.18 33.168C221.82 33.168 222.364 33.04 222.812 32.784C223.276 32.528 223.636 32.176 223.892 31.728L226.772 33.096C226.516 33.736 226.108 34.296 225.548 34.776C225.004 35.256 224.356 35.632 223.604 35.904C222.852 36.16 222.028 36.288 221.132 36.288ZM231.412 30.48L231.172 18.12H234.772L234.532 30.48H231.412ZM231.172 36V32.4H234.772V36H231.172Z" fill="white"/>
<g clip-path="url(#clip0_114_638)">
<path fill-rule="evenodd" clip-rule="evenodd" d="M32.0739 15.418C32.5255 15.3437 32.9869 15.489 33.3158 15.8086C37.1397 19.5268 39.2456 24.5032 39.2456 29.821C39.2456 40.6047 30.4729 49.378 19.6896 49.378C10.7697 49.378 2.98844 43.339 0.766901 34.6924C0.345933 33.0519 0.132507 31.4131 0.132507 29.821C0.132507 26.6958 0.862571 23.6915 2.30245 20.8919C3.71946 18.1396 5.80309 15.7295 8.32832 13.9215C8.34298 13.911 8.35793 13.9008 8.37297 13.8908C8.46604 13.8294 8.56543 13.7567 8.67069 13.6796L8.68149 13.6717C8.69219 13.6639 8.7029 13.6561 8.71361 13.6482C8.75567 13.6174 8.79778 13.5866 8.84013 13.5561C12.8553 10.6829 15.377 6.22884 15.7626 1.33308C15.8006 0.849904 16.0781 0.417941 16.5018 0.182334C16.9254 -0.0531764 17.4385 -0.0609882 17.8691 0.161503C22.8151 2.71788 26.4461 7.27389 27.8309 12.6612C28.252 14.3014 28.4654 15.9402 28.4654 17.5328C28.4654 18.3628 28.4113 19.1905 28.3038 20.0134C29.3824 18.8743 30.2992 17.5857 31.021 16.1836C31.2308 15.776 31.6215 15.492 32.0739 15.418ZM18.9409 35.9114C22.2465 35.9114 24.9262 33.2317 24.9262 29.9261C24.9262 26.6206 22.2465 23.9409 18.9409 23.9409C15.6354 23.9409 12.9557 26.6206 12.9557 29.9261C12.9557 33.2317 15.6354 35.9114 18.9409 35.9114Z" fill="#6359E9"/>
</g>
<defs>
<clipPath id="clip0_114_638">
<rect width="49.3782" height="49.3782" fill="white"/>
</clipPath>
</defs>
</svg>
