<svg width="14" height="14" viewBox="0 0 14 14" fill="none" xmlns="http://www.w3.org/2000/svg">
<path fill-rule="evenodd" clip-rule="evenodd" d="M8.78901 13.2637C9.60517 13.2637 10.3054 13.2207 10.891 13.0911C11.4837 12.9589 11.997 12.7296 12.3982 12.329C12.7988 11.9277 13.0281 11.4145 13.1603 10.8217C13.2906 10.2361 13.3329 9.53593 13.3329 8.71976V6.75003C13.3329 6.40452 13.1957 6.07317 12.9514 5.82886C12.7071 5.58455 12.3757 5.4473 12.0302 5.4473H6.81927C6.47377 5.4473 6.14241 5.58455 5.8981 5.82886C5.65379 6.07317 5.51654 6.40452 5.51654 6.75003V11.961C5.51654 12.3065 5.65379 12.6378 5.8981 12.8821C6.14241 13.1265 6.47377 13.2637 6.81927 13.2637H8.78901ZM0.305603 8.71976C0.305603 9.53593 0.348593 10.2361 0.478867 10.8217C0.610443 11.4145 0.839724 11.9277 1.24097 12.329C1.64156 12.7296 2.15483 12.9589 2.74758 13.0911C2.80425 13.1035 2.86157 13.1152 2.91889 13.1263C3.62497 13.2631 4.21381 12.6651 4.21381 11.9453V6.75003C4.21381 6.40452 4.07655 6.07317 3.83224 5.82886C3.58793 5.58455 3.25658 5.4473 2.91107 5.4473H1.60834C1.26283 5.4473 0.931475 5.58455 0.687165 5.82886C0.442855 6.07317 0.305603 6.40452 0.305603 6.75003V8.71976ZM4.84954 0.236359C4.03338 0.236359 3.33316 0.279349 2.74758 0.409622C2.15483 0.541199 1.64156 0.77048 1.24031 1.17172C0.839724 1.57231 0.610443 2.08559 0.478215 2.67833C0.467794 2.72719 0.457372 2.77604 0.448253 2.82489C0.308209 3.54074 0.917237 4.14456 1.64677 4.14456H12.0146C12.7343 4.14456 13.3323 3.55573 13.1955 2.84964C13.1843 2.79238 13.1724 2.73527 13.1597 2.67833C13.0281 2.08559 12.7988 1.57231 12.3976 1.17107C11.997 0.77048 11.4837 0.541199 10.891 0.408971C10.3054 0.278698 9.60517 0.236359 8.78901 0.236359H4.84954Z" fill="white"/>
</svg>
