<svg width="243" height="50" viewBox="0 0 243 50" fill="none" xmlns="http://www.w3.org/2000/svg">
<path d="M59.1628 36L54.4828 18.12H58.5148L62.0428 33.096H60.9628L64.6828 18.12H68.5228L72.2428 33.096H71.1628L74.6908 18.12H78.7228L74.0428 36H69.7228L65.9788 21.6H67.2268L63.4828 36H59.1628ZM85.8976 36.288C84.5056 36.288 83.2976 35.984 82.2736 35.376C81.2496 34.752 80.4576 33.92 79.8976 32.88C79.3376 31.84 79.0576 30.688 79.0576 29.424C79.0576 28.112 79.3456 26.944 79.9216 25.92C80.5136 24.896 81.3056 24.088 82.2976 23.496C83.2896 22.904 84.4096 22.608 85.6576 22.608C86.6976 22.608 87.6176 22.776 88.4176 23.112C89.2176 23.432 89.8896 23.888 90.4336 24.48C90.9936 25.072 91.4176 25.76 91.7056 26.544C91.9936 27.312 92.1376 28.152 92.1376 29.064C92.1376 29.32 92.1216 29.576 92.0896 29.832C92.0736 30.072 92.0336 30.28 91.9696 30.456H82.1536V27.816H89.9296L88.2256 29.064C88.3856 28.376 88.3776 27.768 88.2016 27.24C88.0256 26.696 87.7136 26.272 87.2656 25.968C86.8336 25.648 86.2976 25.488 85.6576 25.488C85.0336 25.488 84.4976 25.64 84.0496 25.944C83.6016 26.248 83.2656 26.696 83.0416 27.288C82.8176 27.88 82.7296 28.6 82.7776 29.448C82.7136 30.184 82.8016 30.832 83.0416 31.392C83.2816 31.952 83.6496 32.392 84.1456 32.712C84.6416 33.016 85.2416 33.168 85.9456 33.168C86.5856 33.168 87.1296 33.04 87.5776 32.784C88.0416 32.528 88.4016 32.176 88.6576 31.728L91.5376 33.096C91.2816 33.736 90.8736 34.296 90.3136 34.776C89.7696 35.256 89.1216 35.632 88.3696 35.904C87.6176 36.16 86.7936 36.288 85.8976 36.288ZM94.2575 36V17.832H97.8575V36H94.2575ZM106.924 36.288C105.612 36.288 104.428 35.992 103.372 35.4C102.332 34.792 101.5 33.968 100.876 32.928C100.268 31.888 99.9639 30.72 99.9639 29.424C99.9639 28.128 100.268 26.968 100.876 25.944C101.484 24.904 102.316 24.088 103.372 23.496C104.428 22.904 105.612 22.608 106.924 22.608C107.9 22.608 108.804 22.776 109.636 23.112C110.468 23.448 111.18 23.92 111.772 24.528C112.364 25.12 112.788 25.824 113.044 26.64L109.924 27.984C109.7 27.328 109.316 26.808 108.772 26.424C108.244 26.04 107.628 25.848 106.924 25.848C106.3 25.848 105.74 26 105.244 26.304C104.764 26.608 104.38 27.032 104.092 27.576C103.82 28.12 103.684 28.744 103.684 29.448C103.684 30.152 103.82 30.776 104.092 31.32C104.38 31.864 104.764 32.288 105.244 32.592C105.74 32.896 106.3 33.048 106.924 33.048C107.644 33.048 108.268 32.856 108.796 32.472C109.324 32.088 109.7 31.568 109.924 30.912L113.044 32.28C112.804 33.048 112.388 33.736 111.796 34.344C111.204 34.952 110.492 35.432 109.66 35.784C108.828 36.12 107.916 36.288 106.924 36.288ZM121.668 36.288C120.372 36.288 119.188 35.992 118.116 35.4C117.06 34.808 116.212 34 115.572 32.976C114.948 31.936 114.636 30.76 114.636 29.448C114.636 28.12 114.948 26.944 115.572 25.92C116.212 24.896 117.06 24.088 118.116 23.496C119.188 22.904 120.372 22.608 121.668 22.608C122.964 22.608 124.14 22.904 125.196 23.496C126.252 24.088 127.092 24.896 127.716 25.92C128.356 26.944 128.676 28.12 128.676 29.448C128.676 30.76 128.356 31.936 127.716 32.976C127.092 34 126.252 34.808 125.196 35.4C124.14 35.992 122.964 36.288 121.668 36.288ZM121.668 33.048C122.324 33.048 122.892 32.896 123.372 32.592C123.868 32.288 124.252 31.864 124.524 31.32C124.812 30.776 124.956 30.152 124.956 29.448C124.956 28.744 124.812 28.128 124.524 27.6C124.252 27.056 123.868 26.632 123.372 26.328C122.892 26.008 122.324 25.848 121.668 25.848C121.012 25.848 120.436 26.008 119.94 26.328C119.444 26.632 119.052 27.056 118.764 27.6C118.492 28.128 118.356 28.744 118.356 29.448C118.356 30.152 118.492 30.776 118.764 31.32C119.052 31.864 119.444 32.288 119.94 32.592C120.436 32.896 121.012 33.048 121.668 33.048ZM130.797 36V22.896H134.157V26.088L133.797 25.56C133.989 24.552 134.453 23.808 135.189 23.328C135.925 22.848 136.805 22.608 137.829 22.608C138.917 22.608 139.869 22.888 140.685 23.448C141.517 23.992 142.037 24.728 142.245 25.656L141.213 25.752C141.645 24.68 142.261 23.888 143.061 23.376C143.861 22.864 144.797 22.608 145.869 22.608C146.813 22.608 147.645 22.816 148.365 23.232C149.101 23.648 149.677 24.232 150.093 24.984C150.509 25.72 150.717 26.584 150.717 27.576V36H147.117V28.344C147.117 27.832 147.021 27.392 146.829 27.024C146.653 26.656 146.397 26.368 146.061 26.16C145.725 25.952 145.317 25.848 144.837 25.848C144.373 25.848 143.965 25.952 143.613 26.16C143.277 26.368 143.013 26.656 142.821 27.024C142.645 27.392 142.557 27.832 142.557 28.344V36H138.957V28.344C138.957 27.832 138.861 27.392 138.669 27.024C138.493 26.656 138.237 26.368 137.901 26.16C137.565 25.952 137.157 25.848 136.677 25.848C136.213 25.848 135.805 25.952 135.453 26.16C135.117 26.368 134.853 26.656 134.661 27.024C134.485 27.392 134.397 27.832 134.397 28.344V36H130.797ZM159.398 36.288C158.006 36.288 156.798 35.984 155.774 35.376C154.75 34.752 153.958 33.92 153.398 32.88C152.838 31.84 152.558 30.688 152.558 29.424C152.558 28.112 152.846 26.944 153.422 25.92C154.014 24.896 154.806 24.088 155.798 23.496C156.79 22.904 157.91 22.608 159.158 22.608C160.198 22.608 161.118 22.776 161.918 23.112C162.718 23.432 163.39 23.888 163.934 24.48C164.494 25.072 164.918 25.76 165.206 26.544C165.494 27.312 165.638 28.152 165.638 29.064C165.638 29.32 165.622 29.576 165.59 29.832C165.574 30.072 165.534 30.28 165.47 30.456H155.654V27.816H163.43L161.726 29.064C161.886 28.376 161.878 27.768 161.702 27.24C161.526 26.696 161.214 26.272 160.766 25.968C160.334 25.648 159.798 25.488 159.158 25.488C158.534 25.488 157.998 25.64 157.55 25.944C157.102 26.248 156.766 26.696 156.542 27.288C156.318 27.88 156.23 28.6 156.278 29.448C156.214 30.184 156.302 30.832 156.542 31.392C156.782 31.952 157.15 32.392 157.646 32.712C158.142 33.016 158.742 33.168 159.446 33.168C160.086 33.168 160.63 33.04 161.078 32.784C161.542 32.528 161.902 32.176 162.158 31.728L165.038 33.096C164.782 33.736 164.374 34.296 163.814 34.776C163.27 35.256 162.622 35.632 161.87 35.904C161.118 36.16 160.294 36.288 159.398 36.288ZM172.334 36V18.12H175.934L182.63 27H180.95L187.454 18.12H191.054V36H187.334V22.224L188.822 22.56L181.934 31.44H181.454L174.806 22.56L176.054 22.224V36H172.334ZM198.017 36.288C197.073 36.288 196.257 36.136 195.569 35.832C194.881 35.528 194.353 35.096 193.985 34.536C193.617 33.96 193.433 33.28 193.433 32.496C193.433 31.76 193.601 31.112 193.937 30.552C194.273 29.976 194.785 29.496 195.473 29.112C196.177 28.728 197.049 28.456 198.089 28.296L202.097 27.648V30.288L198.737 30.888C198.225 30.984 197.833 31.152 197.561 31.392C197.289 31.616 197.153 31.944 197.153 32.376C197.153 32.776 197.305 33.088 197.609 33.312C197.913 33.536 198.289 33.648 198.737 33.648C199.329 33.648 199.849 33.52 200.297 33.264C200.745 33.008 201.089 32.664 201.329 32.232C201.585 31.784 201.713 31.296 201.713 30.768V27.36C201.713 26.864 201.513 26.448 201.113 26.112C200.729 25.776 200.201 25.608 199.529 25.608C198.889 25.608 198.321 25.784 197.825 26.136C197.345 26.488 196.993 26.952 196.769 27.528L193.889 26.16C194.145 25.424 194.553 24.792 195.113 24.264C195.673 23.736 196.345 23.328 197.129 23.04C197.913 22.752 198.769 22.608 199.697 22.608C200.801 22.608 201.777 22.808 202.625 23.208C203.473 23.608 204.129 24.168 204.593 24.888C205.073 25.592 205.313 26.416 205.313 27.36V36H201.953V33.888L202.769 33.744C202.385 34.32 201.961 34.8 201.497 35.184C201.033 35.552 200.513 35.824 199.937 36C199.361 36.192 198.721 36.288 198.017 36.288ZM214.03 36.144C212.446 36.144 211.214 35.72 210.334 34.872C209.47 34.008 209.038 32.808 209.038 31.272V26.016H206.83V22.896H206.95C207.622 22.896 208.134 22.728 208.486 22.392C208.854 22.056 209.038 21.552 209.038 20.88V19.92H212.638V22.896H215.71V26.016H212.638V31.032C212.638 31.48 212.718 31.856 212.878 32.16C213.038 32.448 213.286 32.664 213.622 32.808C213.958 32.952 214.374 33.024 214.87 33.024C214.982 33.024 215.11 33.016 215.254 33C215.398 32.984 215.55 32.968 215.71 32.952V36C215.47 36.032 215.198 36.064 214.894 36.096C214.59 36.128 214.302 36.144 214.03 36.144ZM224.132 36.288C222.74 36.288 221.532 35.984 220.508 35.376C219.484 34.752 218.692 33.92 218.132 32.88C217.572 31.84 217.292 30.688 217.292 29.424C217.292 28.112 217.58 26.944 218.156 25.92C218.748 24.896 219.54 24.088 220.532 23.496C221.524 22.904 222.644 22.608 223.892 22.608C224.932 22.608 225.852 22.776 226.652 23.112C227.452 23.432 228.124 23.888 228.668 24.48C229.228 25.072 229.652 25.76 229.94 26.544C230.228 27.312 230.372 28.152 230.372 29.064C230.372 29.32 230.356 29.576 230.324 29.832C230.308 30.072 230.268 30.28 230.204 30.456H220.388V27.816H228.164L226.46 29.064C226.62 28.376 226.612 27.768 226.436 27.24C226.26 26.696 225.948 26.272 225.5 25.968C225.068 25.648 224.532 25.488 223.892 25.488C223.268 25.488 222.732 25.64 222.284 25.944C221.836 26.248 221.5 26.696 221.276 27.288C221.052 27.88 220.964 28.6 221.012 29.448C220.948 30.184 221.036 30.832 221.276 31.392C221.516 31.952 221.884 32.392 222.38 32.712C222.876 33.016 223.476 33.168 224.18 33.168C224.82 33.168 225.364 33.04 225.812 32.784C226.276 32.528 226.636 32.176 226.892 31.728L229.772 33.096C229.516 33.736 229.108 34.296 228.548 34.776C228.004 35.256 227.356 35.632 226.604 35.904C225.852 36.16 225.028 36.288 224.132 36.288ZM234.412 30.48L234.172 18.12H237.772L237.532 30.48H234.412ZM234.172 36V32.4H237.772V36H234.172Z" fill="white"/>
<g clip-path="url(#clip0_114_638)">
<path fill-rule="evenodd" clip-rule="evenodd" d="M37.0739 15.418C37.5255 15.3437 37.9869 15.489 38.3158 15.8086C42.1397 19.5268 44.2456 24.5032 44.2456 29.821C44.2456 40.6047 35.4729 49.378 24.6896 49.378C15.7697 49.378 7.98844 43.339 5.7669 34.6924C5.34593 33.0519 5.13251 31.4131 5.13251 29.821C5.13251 26.6958 5.86257 23.6915 7.30245 20.8919C8.71946 18.1396 10.8031 15.7295 13.3283 13.9215C13.343 13.911 13.3579 13.9008 13.373 13.8908C13.466 13.8294 13.5654 13.7567 13.6707 13.6796L13.6815 13.6717C13.6922 13.6639 13.7029 13.6561 13.7136 13.6482C13.7557 13.6174 13.7978 13.5866 13.8401 13.5561C17.8553 10.6829 20.377 6.22884 20.7626 1.33308C20.8006 0.849904 21.0781 0.417941 21.5018 0.182334C21.9254 -0.0531764 22.4385 -0.0609882 22.8691 0.161503C27.8151 2.71788 31.4461 7.27389 32.8309 12.6612C33.252 14.3014 33.4654 15.9402 33.4654 17.5328C33.4654 18.3628 33.4113 19.1905 33.3038 20.0134C34.3824 18.8743 35.2992 17.5857 36.021 16.1836C36.2308 15.776 36.6215 15.492 37.0739 15.418ZM23.9409 35.9114C27.2465 35.9114 29.9262 33.2317 29.9262 29.9261C29.9262 26.6206 27.2465 23.9409 23.9409 23.9409C20.6354 23.9409 17.9557 26.6206 17.9557 29.9261C17.9557 33.2317 20.6354 35.9114 23.9409 35.9114Z" fill="#6359E9"/>
</g>
<defs>
<clipPath id="clip0_114_638">
<rect width="49.3782" height="49.3782" fill="white"/>
</clipPath>
</defs>
</svg>
