<svg width="336" height="60" viewBox="0 0 336 60" fill="none" xmlns="http://www.w3.org/2000/svg">
<path d="M112.064 18.664L105.824 41H100.544L96.352 25.096L91.968 41L86.72 41.032L80.704 18.664H85.504L89.44 36.008L93.984 18.664H98.976L103.264 35.912L107.232 18.664H112.064ZM131.469 31.752C131.469 32.392 131.427 32.968 131.341 33.48H118.381C118.488 34.76 118.936 35.7627 119.725 36.488C120.515 37.2133 121.485 37.576 122.637 37.576C124.301 37.576 125.485 36.8613 126.189 35.432H131.021C130.509 37.1387 129.528 38.5467 128.077 39.656C126.627 40.744 124.845 41.288 122.733 41.288C121.027 41.288 119.491 40.9147 118.125 40.168C116.781 39.4 115.725 38.3227 114.957 36.936C114.211 35.5493 113.837 33.9493 113.837 32.136C113.837 30.3013 114.211 28.6907 114.957 27.304C115.704 25.9173 116.749 24.8507 118.093 24.104C119.437 23.3573 120.984 22.984 122.733 22.984C124.419 22.984 125.923 23.3467 127.245 24.072C128.589 24.7973 129.624 25.832 130.349 27.176C131.096 28.4987 131.469 30.024 131.469 31.752ZM126.829 30.472C126.808 29.32 126.392 28.4027 125.581 27.72C124.771 27.016 123.779 26.664 122.605 26.664C121.496 26.664 120.557 27.0053 119.789 27.688C119.043 28.3493 118.584 29.2773 118.413 30.472H126.829ZM139.219 17.32V41H134.739V17.32H139.219ZM142.493 32.136C142.493 30.3013 142.867 28.7013 143.614 27.336C144.36 25.9493 145.395 24.8827 146.718 24.136C148.04 23.368 149.555 22.984 151.262 22.984C153.459 22.984 155.272 23.5387 156.702 24.648C158.152 25.736 159.123 27.272 159.614 29.256H154.782C154.526 28.488 154.088 27.8907 153.47 27.464C152.872 27.016 152.126 26.792 151.23 26.792C149.95 26.792 148.936 27.2613 148.19 28.2C147.443 29.1173 147.07 30.4293 147.07 32.136C147.07 33.8213 147.443 35.1333 148.19 36.072C148.936 36.9893 149.95 37.448 151.23 37.448C153.043 37.448 154.227 36.6373 154.782 35.016H159.614C159.123 36.936 158.152 38.4613 156.702 39.592C155.251 40.7227 153.438 41.288 151.262 41.288C149.555 41.288 148.04 40.9147 146.718 40.168C145.395 39.4 144.36 38.3333 143.614 36.968C142.867 35.5813 142.493 33.9707 142.493 32.136ZM170.768 41.288C169.061 41.288 167.525 40.9147 166.16 40.168C164.794 39.4 163.717 38.3227 162.928 36.936C162.16 35.5493 161.776 33.9493 161.776 32.136C161.776 30.3227 162.17 28.7227 162.96 27.336C163.77 25.9493 164.869 24.8827 166.256 24.136C167.642 23.368 169.189 22.984 170.896 22.984C172.602 22.984 174.149 23.368 175.536 24.136C176.922 24.8827 178.01 25.9493 178.8 27.336C179.61 28.7227 180.016 30.3227 180.016 32.136C180.016 33.9493 179.6 35.5493 178.767 36.936C177.957 38.3227 176.848 39.4 175.44 40.168C174.053 40.9147 172.496 41.288 170.768 41.288ZM170.768 37.384C171.578 37.384 172.336 37.192 173.04 36.808C173.765 36.4027 174.341 35.8053 174.768 35.016C175.194 34.2267 175.408 33.2667 175.408 32.136C175.408 30.4507 174.96 29.16 174.064 28.264C173.189 27.3467 172.112 26.888 170.832 26.888C169.552 26.888 168.474 27.3467 167.6 28.264C166.746 29.16 166.32 30.4507 166.32 32.136C166.32 33.8213 166.736 35.1227 167.568 36.04C168.421 36.936 169.488 37.384 170.768 37.384ZM205.318 23.016C207.494 23.016 209.243 23.688 210.566 25.032C211.91 26.3547 212.582 28.2107 212.582 30.6V41H208.102V31.208C208.102 29.8213 207.75 28.7653 207.046 28.04C206.342 27.2933 205.382 26.92 204.166 26.92C202.95 26.92 201.979 27.2933 201.254 28.04C200.55 28.7653 200.198 29.8213 200.198 31.208V41H195.718V31.208C195.718 29.8213 195.366 28.7653 194.662 28.04C193.958 27.2933 192.998 26.92 191.782 26.92C190.544 26.92 189.563 27.2933 188.838 28.04C188.134 28.7653 187.782 29.8213 187.782 31.208V41H183.302V23.272H187.782V25.416C188.358 24.6693 189.094 24.0827 189.99 23.656C190.907 23.2293 191.91 23.016 192.998 23.016C194.384 23.016 195.622 23.3147 196.71 23.912C197.798 24.488 198.64 25.32 199.238 26.408C199.814 25.384 200.646 24.5627 201.734 23.944C202.843 23.3253 204.038 23.016 205.318 23.016ZM233.313 31.752C233.313 32.392 233.27 32.968 233.185 33.48H220.225C220.332 34.76 220.78 35.7627 221.569 36.488C222.358 37.2133 223.329 37.576 224.481 37.576C226.145 37.576 227.329 36.8613 228.033 35.432H232.865C232.353 37.1387 231.372 38.5467 229.921 39.656C228.47 40.744 226.689 41.288 224.577 41.288C222.87 41.288 221.334 40.9147 219.969 40.168C218.625 39.4 217.569 38.3227 216.801 36.936C216.054 35.5493 215.681 33.9493 215.681 32.136C215.681 30.3013 216.054 28.6907 216.801 27.304C217.548 25.9173 218.593 24.8507 219.937 24.104C221.281 23.3573 222.828 22.984 224.577 22.984C226.262 22.984 227.766 23.3467 229.089 24.072C230.433 24.7973 231.468 25.832 232.193 27.176C232.94 28.4987 233.313 30.024 233.313 31.752ZM228.673 30.472C228.652 29.32 228.236 28.4027 227.425 27.72C226.614 27.016 225.622 26.664 224.449 26.664C223.34 26.664 222.401 27.0053 221.633 27.688C220.886 28.3493 220.428 29.2773 220.257 30.472H228.673ZM268.56 18.664V41H264.08V26.472L258.096 41H254.704L248.688 26.472V41H244.208V18.664H249.296L256.4 35.272L263.504 18.664H268.56ZM271.837 32.072C271.837 30.28 272.189 28.6907 272.893 27.304C273.619 25.9173 274.589 24.8507 275.805 24.104C277.043 23.3573 278.419 22.984 279.933 22.984C281.256 22.984 282.408 23.2507 283.389 23.784C284.392 24.3173 285.192 24.9893 285.789 25.8V23.272H290.301V41H285.789V38.408C285.213 39.24 284.413 39.9333 283.389 40.488C282.387 41.0213 281.224 41.288 279.901 41.288C278.408 41.288 277.043 40.904 275.805 40.136C274.589 39.368 273.619 38.2907 272.893 36.904C272.189 35.496 271.837 33.8853 271.837 32.072ZM285.789 32.136C285.789 31.048 285.576 30.12 285.149 29.352C284.723 28.5627 284.147 27.9653 283.421 27.56C282.696 27.1333 281.917 26.92 281.085 26.92C280.253 26.92 279.485 27.1227 278.781 27.528C278.077 27.9333 277.501 28.5307 277.053 29.32C276.627 30.088 276.413 31.0053 276.413 32.072C276.413 33.1387 276.627 34.0773 277.053 34.888C277.501 35.6773 278.077 36.2853 278.781 36.712C279.507 37.1387 280.275 37.352 281.085 37.352C281.917 37.352 282.696 37.1493 283.421 36.744C284.147 36.3173 284.723 35.72 285.149 34.952C285.576 34.1627 285.789 33.224 285.789 32.136ZM299.893 26.952V35.528C299.893 36.1253 300.031 36.5627 300.309 36.84C300.607 37.096 301.098 37.224 301.781 37.224H303.861V41H301.045C297.269 41 295.381 39.1653 295.381 35.496V26.952H293.269V23.272H295.381V18.888H299.893V23.272H303.861V26.952H299.893ZM323.563 31.752C323.563 32.392 323.52 32.968 323.435 33.48H310.475C310.582 34.76 311.03 35.7627 311.819 36.488C312.608 37.2133 313.579 37.576 314.731 37.576C316.395 37.576 317.579 36.8613 318.283 35.432H323.115C322.603 37.1387 321.622 38.5467 320.171 39.656C318.72 40.744 316.939 41.288 314.827 41.288C313.12 41.288 311.584 40.9147 310.219 40.168C308.875 39.4 307.819 38.3227 307.051 36.936C306.304 35.5493 305.931 33.9493 305.931 32.136C305.931 30.3013 306.304 28.6907 307.051 27.304C307.798 25.9173 308.843 24.8507 310.187 24.104C311.531 23.3573 313.078 22.984 314.827 22.984C316.512 22.984 318.016 23.3467 319.339 24.072C320.683 24.7973 321.718 25.832 322.443 27.176C323.19 28.4987 323.563 30.024 323.563 31.752ZM318.923 30.472C318.902 29.32 318.486 28.4027 317.675 27.72C316.864 27.016 315.872 26.664 314.699 26.664C313.59 26.664 312.651 27.0053 311.883 27.688C311.136 28.3493 310.678 29.2773 310.507 30.472H318.923ZM332.625 18.28L332.113 33.736H328.337L327.793 18.28H332.625ZM330.321 41.224C329.51 41.224 328.838 40.9787 328.305 40.488C327.793 39.976 327.537 39.3467 327.537 38.6C327.537 37.8533 327.793 37.2347 328.305 36.744C328.838 36.232 329.51 35.976 330.321 35.976C331.11 35.976 331.761 36.232 332.273 36.744C332.785 37.2347 333.041 37.8533 333.041 38.6C333.041 39.3467 332.785 39.976 332.273 40.488C331.761 40.9787 331.11 41.224 330.321 41.224Z" fill="#393939"/>
<g clip-path="url(#clip0_2_26)">
<path d="M150.609 105C145.929 100.242 145.811 95.6603 145.713 91.2548C145.615 87.0255 145.498 83.0312 141.365 78.8215C137.233 74.6118 133.237 74.4356 129.007 74.2594C124.581 74.0636 120.017 73.8678 115.336 69.1098C110.656 64.3519 110.538 59.7702 110.44 55.3647C110.342 51.1354 110.225 47.141 106.092 42.9313C101.96 38.7216 97.9643 38.5454 93.7339 38.3692C89.3076 38.1734 84.7442 37.9776 80.0634 33.2196C75.3825 28.4617 75.265 23.88 75.167 19.4745C75.0691 15.2452 74.9516 11.2509 70.8191 7.04115C66.6866 2.83145 62.6912 2.65522 58.4608 2.479C54.0346 2.2832 49.4712 2.0874 44.7903 -2.67055C40.1094 -7.42849 39.9919 -12.0102 39.894 -16.4157C39.7961 -20.645 39.6786 -24.6393 35.5461 -28.849C31.4136 -33.0587 27.4182 -33.235 23.1878 -33.4112C18.7615 -33.607 14.1982 -33.8028 9.51728 -38.5607C4.8364 -43.3187 4.71889 -47.9004 4.62096 -52.3059C4.52304 -56.5352 4.40553 -60.5295 0.273041 -64.7392C-3.85945 -68.9489 -7.85484 -69.1251 -12.0853 -69.3014C-16.5115 -69.4972 -21.0749 -69.693 -25.7558 -74.4509C-30.4366 -79.2089 -30.5541 -83.7906 -30.6521 -88.1961C-30.75 -92.4254 -30.8675 -96.4197 -35 -100.629L-33.6094 -102C-28.9286 -97.2421 -28.8111 -92.6603 -28.7131 -88.2548C-28.6152 -84.0255 -28.4977 -80.0312 -24.3652 -75.8215C-20.2327 -71.6118 -16.2373 -71.4356 -12.0069 -71.2594C-7.58065 -71.0636 -3.01728 -70.8678 1.66359 -66.1098C6.34447 -61.3519 6.46198 -56.7701 6.55991 -52.3646C6.65783 -48.1354 6.77535 -44.141 10.9078 -39.9313C15.0403 -35.7216 19.0357 -35.5454 23.2661 -35.3692C27.6924 -35.1734 32.2558 -34.9776 36.9366 -30.2196C41.6175 -25.4617 41.735 -20.88 41.8329 -16.4745C41.9309 -12.2452 42.0484 -8.25085 46.1809 -4.04115C50.3134 0.168556 54.3087 0.344772 58.5392 0.520996C62.9654 0.716797 67.5288 0.912605 72.2097 5.67055C76.8905 10.4285 77.0081 15.0102 77.106 19.4157C77.2039 23.645 77.3214 27.6393 81.4539 31.849C85.5864 36.0587 89.5818 36.235 93.8122 36.4112C98.2385 36.607 102.802 36.8028 107.483 41.5607C112.164 46.3187 112.281 50.9004 112.379 55.3059C112.477 59.5352 112.594 63.5295 116.727 67.7392C120.859 71.9489 124.855 72.1252 129.085 72.3014C133.512 72.4972 138.075 72.693 142.756 77.4509C147.437 82.2089 147.554 86.7906 147.652 91.1961C147.75 95.4254 147.868 99.4197 152 103.629L150.609 105Z" fill="#F35D5D"/>
<path d="M147.609 112C142.929 107.242 142.811 102.66 142.713 98.2548C142.615 94.0255 142.498 90.0312 138.365 85.8215C134.233 81.6118 130.237 81.4356 126.007 81.2594C121.581 81.0636 117.017 80.8678 112.336 76.1098C107.656 71.3519 107.538 66.7702 107.44 62.3647C107.342 58.1354 107.225 54.141 103.092 49.9313C98.9597 45.7216 94.9643 45.5454 90.7339 45.3692C86.3076 45.1734 81.7442 44.9776 77.0634 40.2197C72.3825 35.4617 72.265 30.88 72.167 26.4745C72.0691 22.2452 71.9516 18.2509 67.8191 14.0412C63.6866 9.83145 59.6912 9.65523 55.4608 9.47901C51.0346 9.28321 46.4712 9.0874 41.7903 4.32945C37.1094 -0.42849 36.9919 -5.01022 36.894 -9.41572C36.7961 -13.645 36.6786 -17.6393 32.5461 -21.849C28.4136 -26.0587 24.4182 -26.235 20.1878 -26.4112C15.7615 -26.607 11.1982 -26.8028 6.51728 -31.5607C1.8364 -36.3187 1.71889 -40.9004 1.62096 -45.3059C1.52304 -49.5352 1.40553 -53.5295 -2.72696 -57.7392C-6.85945 -61.9489 -10.8548 -62.1251 -15.0853 -62.3014C-19.5115 -62.4972 -24.0749 -62.693 -28.7558 -67.4509C-33.4366 -72.2089 -33.5542 -76.7906 -33.6521 -81.1961C-33.75 -85.4254 -33.8675 -89.4197 -38 -93.6294L-36.6094 -95C-31.9286 -90.2421 -31.8111 -85.6603 -31.7131 -81.2548C-31.6152 -77.0255 -31.4977 -73.0312 -27.3652 -68.8215C-23.2327 -64.6118 -19.2373 -64.4356 -15.0069 -64.2594C-10.5806 -64.0636 -6.01729 -63.8678 -1.33641 -59.1098C3.34446 -54.3519 3.46198 -49.7701 3.5599 -45.3646C3.65783 -41.1354 3.77534 -37.141 7.90783 -32.9313C12.0403 -28.7216 16.0357 -28.5454 20.2661 -28.3692C24.6924 -28.1734 29.2558 -27.9776 33.9366 -23.2196C38.6175 -18.4617 38.735 -13.88 38.8329 -9.47446C38.9309 -5.24517 39.0484 -1.25085 43.1809 2.95885C47.3134 7.16856 51.3087 7.34479 55.5392 7.52101C59.9654 7.7168 64.5288 7.91261 69.2097 12.6705C73.8905 17.4285 74.0081 22.0102 74.106 26.4157C74.2039 30.645 74.3214 34.6393 78.4539 38.849C82.5864 43.0587 86.5818 43.235 90.8122 43.4112C95.2385 43.607 99.8018 43.8028 104.483 48.5607C109.164 53.3187 109.281 57.9004 109.379 62.3059C109.477 66.5352 109.594 70.5295 113.727 74.7392C117.859 78.9489 121.855 79.1252 126.085 79.3014C130.512 79.4972 135.075 79.693 139.756 84.4509C144.437 89.2089 144.554 93.7906 144.652 98.1961C144.75 102.425 144.868 106.42 149 110.629L147.609 112Z" fill="#9F1717"/>
<path d="M138.617 119C133.961 114.242 133.844 109.66 133.747 105.255C133.649 101.026 133.532 97.0312 129.422 92.8215C125.312 88.6118 121.338 88.4356 117.13 88.2594C112.727 88.0636 108.188 87.8678 103.532 83.1098C98.8766 78.3519 98.7598 73.7701 98.6623 69.3646C98.5649 65.1353 98.4481 61.141 94.3377 56.9313C90.2273 52.7216 86.2532 52.5454 82.0455 52.3692C77.6429 52.1734 73.1039 51.9776 68.4481 47.2196C63.7922 42.4617 63.6753 37.88 63.5779 33.4745C63.4805 29.2452 63.3636 25.2508 59.2532 21.0411C55.1429 16.8314 51.1688 16.6552 46.961 16.479C42.5584 16.2832 38.0195 16.0874 33.3636 11.3295C28.7078 6.57151 28.5909 1.98978 28.4935 -2.41573C28.3961 -6.64501 28.2792 -10.6393 24.1688 -14.849C20.0584 -19.0587 16.0844 -19.235 11.8766 -19.4112C7.47403 -19.607 2.93506 -19.8028 -1.72078 -24.5607C-6.37663 -29.3187 -6.49351 -33.9004 -6.59091 -38.3059C-6.68831 -42.5352 -6.8052 -46.5295 -10.9156 -50.7392C-15.026 -54.9489 -19 -55.1251 -23.2078 -55.3014C-27.6104 -55.4972 -32.1494 -55.693 -36.8052 -60.4509C-41.461 -65.2089 -41.5779 -69.7906 -41.6753 -74.1961C-41.7727 -78.4254 -41.8896 -82.4197 -46 -86.6294L-44.6169 -88C-39.961 -83.2421 -39.8442 -78.6603 -39.7468 -74.2548C-39.6494 -70.0255 -39.5325 -66.0312 -35.4221 -61.8215C-31.3117 -57.6118 -27.3377 -57.4356 -23.1299 -57.2594C-18.7273 -57.0636 -14.1883 -56.8678 -9.53247 -52.1098C-4.87663 -47.3519 -4.75974 -42.7701 -4.66234 -38.3646C-4.56494 -34.1354 -4.44805 -30.141 -0.337662 -25.9313C3.77273 -21.7216 7.74675 -21.5454 11.9545 -21.3692C16.3571 -21.1734 20.8961 -20.9776 25.5519 -16.2196C30.2078 -11.4617 30.3247 -6.87997 30.4221 -2.47447C30.5195 1.75481 30.6364 5.74915 34.7467 9.95885C38.8571 14.1686 42.8312 14.3448 47.039 14.521C51.4416 14.7168 55.9805 14.9126 60.6364 19.6705C65.2922 24.4285 65.4091 29.0102 65.5065 33.4157C65.6039 37.645 65.7208 41.6393 69.8312 45.849C73.9416 50.0587 77.9156 50.235 82.1234 50.4112C86.526 50.607 91.0649 50.8028 95.7208 55.5607C100.377 60.3187 100.493 64.9004 100.591 69.3059C100.688 73.5352 100.805 77.5295 104.916 81.7392C109.026 85.9489 113 86.1251 117.208 86.3014C121.61 86.4971 126.149 86.6929 130.805 91.4509C135.461 96.2088 135.578 100.791 135.675 105.196C135.773 109.425 135.89 113.42 140 117.629L138.617 119Z" fill="#F35D5D"/>
<path d="M133.609 126C128.929 121.242 128.811 116.66 128.713 112.255C128.615 108.026 128.498 104.031 124.365 99.8215C120.233 95.6118 116.237 95.4356 112.007 95.2594C107.581 95.0636 103.017 94.8678 98.3364 90.1098C93.6555 85.3519 93.538 80.7701 93.4401 76.3646C93.3421 72.1353 93.2246 68.141 89.0922 63.9313C84.9597 59.7216 80.9643 59.5454 76.7339 59.3692C72.3076 59.1734 67.7442 58.9776 63.0634 54.2196C58.3825 49.4617 58.265 44.88 58.167 40.4745C58.0691 36.2452 57.9516 32.2508 53.8191 28.0411C49.6866 23.8314 45.6912 23.6552 41.4608 23.479C37.0346 23.2832 32.4712 23.0874 27.7903 18.3295C23.1094 13.5715 22.9919 8.98978 22.894 4.58428C22.7961 0.354996 22.6786 -3.63933 18.5461 -7.84903C14.4136 -12.0587 10.4182 -12.235 6.18779 -12.4112C1.76152 -12.607 -2.80185 -12.8028 -7.48272 -17.5607C-12.1636 -22.3187 -12.2811 -26.9004 -12.379 -31.3059C-12.477 -35.5352 -12.5945 -39.5295 -16.727 -43.7392C-20.8594 -47.9489 -24.8548 -48.1251 -29.0853 -48.3014C-33.5115 -48.4972 -38.0749 -48.693 -42.7558 -53.4509C-47.4366 -58.2089 -47.5541 -62.7906 -47.6521 -67.1961C-47.75 -71.4254 -47.8675 -75.4197 -52 -79.6294L-50.6094 -81C-45.9286 -76.2421 -45.8111 -71.6603 -45.7131 -67.2548C-45.6152 -63.0255 -45.4977 -59.0312 -41.3652 -54.8215C-37.2327 -50.6118 -33.2373 -50.4356 -29.0069 -50.2594C-24.5806 -50.0636 -20.0173 -49.8678 -15.3364 -45.1098C-10.6555 -40.3519 -10.538 -35.7701 -10.4401 -31.3646C-10.3422 -27.1354 -10.2247 -23.141 -6.09217 -18.9313C-1.95968 -14.7216 2.03571 -14.5454 6.26612 -14.3692C10.6924 -14.1734 15.2558 -13.9776 19.9366 -9.21964C24.6175 -4.46169 24.735 0.120041 24.8329 4.52554C24.9309 8.75483 25.0484 12.7492 29.1809 16.9589C33.3134 21.1686 37.3087 21.3448 41.5392 21.521C45.9654 21.7168 50.5288 21.9126 55.2097 26.6705C59.8905 31.4285 60.0081 36.0102 60.106 40.4157C60.2039 44.645 60.3214 48.6393 64.4539 52.849C68.5864 57.0587 72.5818 57.235 76.8122 57.4112C81.2385 57.607 85.8018 57.8028 90.4827 62.5607C95.1636 67.3187 95.2811 71.9004 95.379 76.3059C95.4769 80.5352 95.5945 84.5295 99.7269 88.7392C103.859 92.9489 107.855 93.1251 112.085 93.3014C116.512 93.4972 121.075 93.693 125.756 98.4509C130.437 103.209 130.554 107.791 130.652 112.196C130.75 116.425 130.868 120.42 135 124.629L133.609 126Z" fill="#9F1717"/>
<path d="M127.609 133C122.929 128.242 122.811 123.66 122.713 119.255C122.615 115.026 122.498 111.031 118.365 106.821C114.233 102.612 110.237 102.436 106.007 102.259C101.581 102.064 97.0173 101.868 92.3364 97.1098C87.6555 92.3519 87.538 87.7701 87.4401 83.3646C87.3422 79.1353 87.2246 75.141 83.0922 70.9313C78.9597 66.7216 74.9643 66.5454 70.7339 66.3692C66.3076 66.1734 61.7442 65.9776 57.0634 61.2196C52.3825 56.4617 52.265 51.88 52.1671 47.4744C52.0691 43.2452 51.9516 39.2508 47.8191 35.0411C43.6866 30.8314 39.6912 30.6552 35.4608 30.479C31.0346 30.2832 26.4712 30.0874 21.7903 25.3294C17.1094 20.5715 16.9919 15.9898 16.894 11.5843C16.7961 7.35499 16.6786 3.36066 12.5461 -0.849045C8.4136 -5.05875 4.4182 -5.23497 0.187782 -5.41119C-4.23848 -5.60699 -8.80184 -5.80279 -13.4827 -10.5607C-18.1636 -15.3187 -18.2811 -19.9004 -18.379 -24.3059C-18.477 -28.5352 -18.5945 -32.5295 -22.727 -36.7392C-26.8594 -40.9489 -30.8548 -41.1251 -35.0853 -41.3014C-39.5115 -41.4972 -44.0749 -41.693 -48.7558 -46.4509C-53.4366 -51.2089 -53.5541 -55.7906 -53.6521 -60.1961C-53.75 -64.4254 -53.8675 -68.4197 -58 -72.6294L-56.6094 -74C-51.9286 -69.2421 -51.8111 -64.6603 -51.7131 -60.2548C-51.6152 -56.0255 -51.4977 -52.0312 -47.3652 -47.8215C-43.2327 -43.6118 -39.2373 -43.4356 -35.0069 -43.2594C-30.5806 -43.0636 -26.0173 -42.8678 -21.3364 -38.1098C-16.6555 -33.3519 -16.538 -28.7701 -16.4401 -24.3646C-16.3422 -20.1354 -16.2247 -16.141 -12.0922 -11.9313C-7.95967 -7.72163 -3.96429 -7.54541 0.266129 -7.36919C4.69239 -7.17339 9.25576 -6.97759 13.9366 -2.21964C18.6175 2.5383 18.735 7.12003 18.8329 11.5255C18.9309 15.7548 19.0484 19.7491 23.1809 23.9588C27.3134 28.1685 31.3088 28.3448 35.5392 28.521C39.9654 28.7168 44.5288 28.9126 49.2097 33.6705C53.8905 38.4285 54.0081 43.0102 54.106 47.4157C54.2039 51.645 54.3214 55.6393 58.4539 59.849C62.5864 64.0587 66.5818 64.2349 70.8122 64.4112C75.2385 64.607 79.8018 64.8028 84.4827 69.5607C89.1636 74.3187 89.2811 78.9004 89.379 83.3059C89.477 87.5352 89.5945 91.5295 93.727 95.7392C97.8595 99.9489 101.855 100.125 106.085 100.301C110.512 100.497 115.075 100.693 119.756 105.451C124.437 110.209 124.554 114.791 124.652 119.196C124.75 123.425 124.868 127.42 129 131.629L127.609 133Z" fill="#F35D5D"/>
<path d="M121.617 139C116.961 134.265 116.844 129.705 116.747 125.321C116.649 121.112 116.532 117.137 112.422 112.948C108.312 108.759 104.338 108.583 100.13 108.408C95.7273 108.213 91.1883 108.018 86.5325 103.283C81.8766 98.5482 81.7598 93.9886 81.6623 89.6044C81.5649 85.3956 81.4481 81.4205 77.3377 77.2312C73.2273 73.0418 69.2533 72.8664 65.0455 72.6911C60.6429 72.4962 56.1039 72.3014 51.4481 67.5664C46.7922 62.8314 46.6753 58.2719 46.5779 53.8876C46.4805 49.6788 46.3637 45.7038 42.2533 41.5144C38.1429 37.325 34.1688 37.1496 29.961 36.9743C25.5584 36.7794 21.0195 36.5846 16.3636 31.8496C11.7078 27.1146 11.5909 22.555 11.4935 18.1708C11.3961 13.962 11.2792 9.98695 7.16884 5.79758C3.05845 1.60821 -0.915581 1.43284 -5.12337 1.25747C-9.52597 1.06261 -14.0649 0.867767 -18.7208 -3.8672C-23.3766 -8.60216 -23.4935 -13.1618 -23.5909 -17.546C-23.6883 -21.7548 -23.8052 -25.7299 -27.9156 -29.9192C-32.026 -34.1086 -36 -34.284 -40.2078 -34.4593C-44.6104 -34.6542 -49.1493 -34.849 -53.8052 -39.584C-58.461 -44.319 -58.5779 -48.8785 -58.6753 -53.2628C-58.7727 -57.4716 -58.8896 -61.4467 -63 -65.636L-61.6169 -67C-56.961 -62.265 -56.8442 -57.7054 -56.7468 -53.3212C-56.6493 -49.1124 -56.5325 -45.1373 -52.4221 -40.948C-48.3117 -36.7586 -44.3377 -36.5832 -40.1299 -36.4079C-35.7273 -36.213 -31.1883 -36.0182 -26.5325 -31.2832C-21.8766 -26.5482 -21.7597 -21.9886 -21.6623 -17.6044C-21.5649 -13.3956 -21.4481 -9.42054 -17.3377 -5.23117C-13.2273 -1.04181 -9.25324 -0.86644 -5.04545 -0.691071C-0.642853 -0.496216 3.89611 -0.301369 8.55196 4.43359C13.2078 9.16856 13.3247 13.7281 13.4221 18.1124C13.5195 22.3212 13.6364 26.2962 17.7468 30.4856C21.8572 34.675 25.8312 34.8504 30.039 35.0257C34.4416 35.2206 38.9805 35.4154 43.6364 40.1504C48.2922 44.8854 48.4091 49.4449 48.5065 53.8292C48.6039 58.038 48.7208 62.013 52.8312 66.2024C56.9416 70.3918 60.9156 70.5672 65.1234 70.7425C69.526 70.9374 74.0649 71.1322 78.7208 75.8672C83.3766 80.6022 83.4935 85.1618 83.5909 89.546C83.6883 93.7548 83.8052 97.7299 87.9156 101.919C92.026 106.109 96 106.284 100.208 106.459C104.61 106.654 109.149 106.849 113.805 111.584C118.461 116.319 118.578 120.879 118.675 125.263C118.773 129.472 118.89 133.447 123 137.636L121.617 139Z" fill="#9F1717"/>
<path d="M115.617 146C110.961 141.242 110.844 136.66 110.747 132.255C110.649 128.026 110.532 124.031 106.422 119.822C102.312 115.612 98.3377 115.436 94.1299 115.259C89.7273 115.064 85.1883 114.868 80.5325 110.11C75.8766 105.352 75.7598 100.77 75.6623 96.3646C75.5649 92.1353 75.4481 88.141 71.3377 83.9313C67.2273 79.7216 63.2533 79.5454 59.0455 79.3692C54.6429 79.1734 50.1039 78.9776 45.4481 74.2196C40.7922 69.4617 40.6753 64.88 40.5779 60.4745C40.4805 56.2452 40.3636 52.2509 36.2533 48.0412C32.1429 43.8315 28.1688 43.6552 23.961 43.479C19.5584 43.2832 15.0195 43.0874 10.3636 38.3295C5.70779 33.5715 5.5909 28.9898 5.4935 24.5843C5.3961 20.355 5.27921 16.3607 1.16882 12.151C-2.94157 7.94126 -6.91558 7.76505 -11.1234 7.58882C-15.526 7.39302 -20.0649 7.19722 -24.7208 2.43927C-29.3766 -2.31867 -29.4935 -6.90039 -29.5909 -11.3059C-29.6883 -15.5352 -29.8052 -19.5295 -33.9156 -23.7392C-38.026 -27.9489 -42 -28.1251 -46.2078 -28.3014C-50.6104 -28.4972 -55.1494 -28.693 -59.8052 -33.4509C-64.461 -38.2089 -64.5779 -42.7906 -64.6753 -47.1961C-64.7727 -51.4254 -64.8896 -55.4197 -69 -59.6294L-67.6169 -61C-62.961 -56.2421 -62.8442 -51.6603 -62.7468 -47.2548C-62.6494 -43.0255 -62.5325 -39.0312 -58.4221 -34.8215C-54.3117 -30.6118 -50.3377 -30.4356 -46.1299 -30.2594C-41.7273 -30.0636 -37.1883 -29.8678 -32.5325 -25.1098C-27.8766 -20.3519 -27.7597 -15.7701 -27.6623 -11.3646C-27.5649 -7.13536 -27.4481 -3.14103 -23.3377 1.06867C-19.2273 5.27838 -15.2532 5.45461 -11.0455 5.63082C-6.64286 5.82662 -2.1039 6.02242 2.55194 10.7804C7.20779 15.5383 7.32467 20.12 7.42207 24.5255C7.51948 28.7548 7.63635 32.7492 11.7467 36.9589C15.8571 41.1686 19.8312 41.3448 24.039 41.521C28.4416 41.7168 32.9805 41.9126 37.6364 46.6705C42.2922 51.4285 42.4091 56.0102 42.5065 60.4157C42.6039 64.645 42.7208 68.6393 46.8312 72.849C50.9416 77.0587 54.9156 77.235 59.1234 77.4112C63.526 77.607 68.0649 77.8028 72.7208 82.5607C77.3766 87.3187 77.4935 91.9004 77.5909 96.3059C77.6883 100.535 77.8052 104.53 81.9156 108.739C86.026 112.949 90 113.125 94.2078 113.301C98.6104 113.497 103.149 113.693 107.805 118.451C112.461 123.209 112.578 127.791 112.675 132.196C112.773 136.425 112.89 140.42 117 144.629L115.617 146Z" fill="#F35D5D"/>
<path d="M110.609 153C105.929 148.242 105.811 143.66 105.713 139.255C105.615 135.026 105.498 131.031 101.365 126.821C97.2327 122.612 93.2373 122.436 89.0069 122.259C84.5806 122.064 80.0173 121.868 75.3364 117.11C70.6555 112.352 70.538 107.77 70.4401 103.365C70.3422 99.1353 70.2246 95.141 66.0922 90.9313C61.9597 86.7216 57.9643 86.5454 53.7339 86.3692C49.3076 86.1734 44.7442 85.9776 40.0634 81.2196C35.3825 76.4617 35.265 71.88 35.1671 67.4744C35.0691 63.2452 34.9516 59.2508 30.8191 55.0411C26.6866 50.8314 22.6912 50.6552 18.4608 50.479C14.0346 50.2832 9.4712 50.0874 4.79033 45.3294C0.109451 40.5715 -0.00805664 35.9898 -0.105988 31.5843C-0.203911 27.355 -0.321426 23.3607 -4.45392 19.151C-8.5864 14.9413 -12.5818 14.765 -16.8122 14.5888C-21.2385 14.393 -25.8018 14.1972 -30.4827 9.43927C-35.1636 4.68132 -35.2811 0.0996017 -35.379 -4.3059C-35.477 -8.53519 -35.5945 -12.5295 -39.727 -16.7392C-43.8594 -20.9489 -47.8548 -21.1251 -52.0853 -21.3014C-56.5115 -21.4972 -61.0749 -21.693 -65.7558 -26.4509C-70.4366 -31.2089 -70.5541 -35.7906 -70.6521 -40.1961C-70.75 -44.4254 -70.8675 -48.4197 -75 -52.6294L-73.6094 -54C-68.9286 -49.2421 -68.8111 -44.6603 -68.7131 -40.2548C-68.6152 -36.0255 -68.4977 -32.0312 -64.3652 -27.8215C-60.2327 -23.6118 -56.2373 -23.4356 -52.0069 -23.2594C-47.5806 -23.0636 -43.0173 -22.8678 -38.3364 -18.1098C-33.6555 -13.3519 -33.538 -8.77015 -33.4401 -4.36464C-33.3422 -0.135357 -33.2247 3.85896 -29.0922 8.06867C-24.9597 12.2784 -20.9643 12.4546 -16.7339 12.6308C-12.3076 12.8266 -7.74424 13.0224 -3.06337 17.7804C1.61751 22.5383 1.73502 27.12 1.83295 31.5255C1.93087 35.7548 2.04839 39.7491 6.18088 43.9588C10.3134 48.1685 14.3088 48.3448 18.5392 48.521C22.9654 48.7168 27.5288 48.9126 32.2097 53.6705C36.8905 58.4285 37.0081 63.0102 37.106 67.4157C37.2039 71.645 37.3214 75.6393 41.4539 79.849C45.5864 84.0587 49.5818 84.2349 53.8122 84.4112C58.2385 84.607 62.8018 84.8028 67.4827 89.5607C72.1636 94.3187 72.2811 98.9004 72.379 103.306C72.477 107.535 72.5945 111.529 76.727 115.739C80.8595 119.949 84.8548 120.125 89.0853 120.301C93.5115 120.497 98.0749 120.693 102.756 125.451C107.437 130.209 107.554 134.791 107.652 139.196C107.75 143.425 107.868 147.42 112 151.629L110.609 153Z" fill="#9F1717"/>
<path d="M104.609 160C99.9286 155.242 99.8111 150.66 99.7131 146.255C99.6152 142.026 99.4977 138.031 95.3652 133.822C91.2327 129.612 87.2373 129.436 83.0069 129.259C78.5806 129.064 74.0173 128.868 69.3364 124.11C64.6555 119.352 64.538 114.77 64.4401 110.365C64.3422 106.135 64.2246 102.141 60.0922 97.9313C55.9597 93.7216 51.9643 93.5454 47.7339 93.3692C43.3076 93.1734 38.7442 92.9776 34.0634 88.2196C29.3825 83.4617 29.265 78.88 29.1671 74.4745C29.0691 70.2452 28.9516 66.2509 24.8191 62.0412C20.6866 57.8315 16.6912 57.6552 12.4608 57.479C8.03456 57.2832 3.4712 57.0874 -1.20968 52.3295C-5.89056 47.5715 -6.00806 42.9898 -6.106 38.5843C-6.20392 34.355 -6.32143 30.3607 -10.4539 26.151C-14.5864 21.9413 -18.5818 21.765 -22.8122 21.5888C-27.2385 21.393 -31.8018 21.1972 -36.4827 16.4393C-41.1636 11.6813 -41.2811 7.0996 -41.379 2.6941C-41.477 -1.53519 -41.5945 -5.52951 -45.727 -9.73922C-49.8594 -13.9489 -53.8548 -14.1251 -58.0853 -14.3014C-62.5115 -14.4972 -67.0749 -14.693 -71.7558 -19.4509C-76.4366 -24.2089 -76.5541 -28.7906 -76.6521 -33.1961C-76.75 -37.4254 -76.8675 -41.4197 -81 -45.6294L-79.6094 -47C-74.9286 -42.2421 -74.8111 -37.6603 -74.7131 -33.2548C-74.6152 -29.0255 -74.4977 -25.0312 -70.3652 -20.8215C-66.2327 -16.6118 -62.2373 -16.4356 -58.0069 -16.2594C-53.5806 -16.0636 -49.0173 -15.8678 -44.3364 -11.1098C-39.6555 -6.35188 -39.538 -1.77015 -39.4401 2.63536C-39.3422 6.86464 -39.2247 10.859 -35.0922 15.0687C-30.9597 19.2784 -26.9643 19.4546 -22.7339 19.6308C-18.3076 19.8266 -13.7442 20.0224 -9.06336 24.7804C-4.38248 29.5383 -4.26498 34.12 -4.16705 38.5255C-4.06912 42.7548 -3.95161 46.7491 0.180878 50.9589C4.31336 55.1686 8.30875 55.3448 12.5392 55.521C16.9654 55.7168 21.5288 55.9126 26.2097 60.6705C30.8905 65.4285 31.0081 70.0102 31.106 74.4157C31.2039 78.645 31.3214 82.6393 35.4539 86.849C39.5864 91.0587 43.5818 91.235 47.8122 91.4112C52.2385 91.607 56.8018 91.8028 61.4827 96.5607C66.1636 101.319 66.2811 105.9 66.379 110.306C66.477 114.535 66.5945 118.53 70.7269 122.739C74.8594 126.949 78.8548 127.125 83.0853 127.301C87.5115 127.497 92.0749 127.693 96.7558 132.451C101.437 137.209 101.554 141.791 101.652 146.196C101.75 150.425 101.868 154.42 106 158.629L104.609 160Z" fill="#F35D5D"/>
<path d="M98.6169 166C93.961 161.265 93.8441 156.705 93.7467 152.321C93.6494 148.112 93.5325 144.137 89.4221 139.948C85.3117 135.759 81.3377 135.583 77.1299 135.408C72.7273 135.213 68.1883 135.018 63.5325 130.283C58.8766 125.548 58.7598 120.989 58.6623 116.604C58.5649 112.396 58.4481 108.421 54.3377 104.231C50.2273 100.042 46.2533 99.8664 42.0455 99.6911C37.6429 99.4962 33.1039 99.3014 28.4481 94.5664C23.7922 89.8315 23.6753 85.2719 23.5779 80.8876C23.4805 76.6788 23.3636 72.7038 19.2533 68.5144C15.1429 64.325 11.1688 64.1497 6.96104 63.9743C2.55843 63.7794 -1.98052 63.5846 -6.63637 58.8496C-11.2922 54.1146 -11.4091 49.5551 -11.5065 45.1708C-11.6039 40.962 -11.7208 36.987 -15.8312 32.7976C-19.9416 28.6082 -23.9156 28.4328 -28.1234 28.2575C-32.526 28.0626 -37.0649 27.8678 -41.7208 23.1328C-46.3766 18.3978 -46.4935 13.8382 -46.5909 9.45403C-46.6883 5.24517 -46.8052 1.27015 -50.9156 -2.91922C-55.026 -7.10859 -59 -7.28396 -63.2078 -7.45933C-67.6104 -7.65418 -72.1494 -7.84903 -76.8052 -12.584C-81.461 -17.319 -81.5779 -21.8785 -81.6753 -26.2628C-81.7727 -30.4716 -81.8896 -34.4467 -86 -38.636L-84.6169 -40C-79.961 -35.265 -79.8442 -30.7054 -79.7468 -26.3212C-79.6494 -22.1124 -79.5325 -18.1373 -75.4221 -13.948C-71.3117 -9.7586 -67.3377 -9.58324 -63.1299 -9.40787C-58.7273 -9.21301 -54.1883 -9.01816 -49.5325 -4.2832C-44.8766 0.451763 -44.7597 5.01135 -44.6623 9.39557C-44.5649 13.6044 -44.4481 17.5795 -40.3377 21.7688C-36.2273 25.9582 -32.2532 26.1336 -28.0455 26.3089C-23.6429 26.5038 -19.1039 26.6986 -14.4481 31.4336C-9.79221 36.1686 -9.67533 40.7281 -9.57793 45.1124C-9.48052 49.3212 -9.36364 53.2962 -5.25325 57.4856C-1.14286 61.675 2.83117 61.8504 7.03896 62.0257C11.4416 62.2206 15.9805 62.4154 20.6364 67.1504C25.2922 71.8854 25.4091 76.445 25.5065 80.8292C25.6039 85.038 25.7208 89.0131 29.8312 93.2024C33.9416 97.3918 37.9156 97.5672 42.1234 97.7425C46.526 97.9374 51.0649 98.1322 55.7208 102.867C60.3766 107.602 60.4935 112.162 60.5909 116.546C60.6883 120.755 60.8052 124.73 64.9156 128.919C69.026 133.109 73 133.284 77.2078 133.459C81.6104 133.654 86.1494 133.849 90.8052 138.584C95.461 143.319 95.5779 147.879 95.6753 152.263C95.7727 156.472 95.8896 160.447 100 164.636L98.6169 166Z" fill="#9F1717"/>
<path d="M93.6095 173C88.9286 168.242 88.8111 163.66 88.7131 159.255C88.6152 155.026 88.4977 151.031 84.3652 146.822C80.2327 142.612 76.2373 142.436 72.0069 142.259C67.5806 142.064 63.0173 141.868 58.3364 137.11C53.6555 132.352 53.538 127.77 53.4401 123.365C53.3422 119.135 53.2247 115.141 49.0922 110.931C44.9597 106.722 40.9643 106.545 36.7339 106.369C32.3076 106.173 27.7442 105.978 23.0634 101.22C18.3825 96.4617 18.265 91.88 18.1671 87.4745C18.0691 83.2452 17.9516 79.2508 13.8191 75.0411C9.68663 70.8314 5.69125 70.6552 1.46083 70.479C-2.96544 70.2832 -7.5288 70.0874 -12.2097 65.3295C-16.8905 60.5715 -17.0081 55.9898 -17.106 51.5843C-17.2039 47.355 -17.3214 43.3607 -21.4539 39.151C-25.5864 34.9413 -29.5818 34.765 -33.8122 34.5888C-38.2385 34.393 -42.8018 34.1972 -47.4827 29.4393C-52.1636 24.6813 -52.2811 20.0996 -52.379 15.6941C-52.477 11.4648 -52.5945 7.47048 -56.727 3.26078C-60.8594 -0.948925 -64.8548 -1.12514 -69.0853 -1.30136C-73.5115 -1.49717 -78.0749 -1.69297 -82.7558 -6.45091C-87.4366 -11.2089 -87.5541 -15.7906 -87.6521 -20.1961C-87.75 -24.4254 -87.8675 -28.4197 -92 -32.6294L-90.6094 -34C-85.9286 -29.2421 -85.8111 -24.6603 -85.7131 -20.2548C-85.6152 -16.0255 -85.4977 -12.0312 -81.3652 -7.82151C-77.2327 -3.61181 -73.2373 -3.43559 -69.0069 -3.25937C-64.5806 -3.06357 -60.0173 -2.86777 -55.3364 1.89018C-50.6555 6.64812 -50.538 11.2298 -50.4401 15.6353C-50.3422 19.8646 -50.2247 23.859 -46.0922 28.0687C-41.9597 32.2784 -37.9643 32.4546 -33.7339 32.6308C-29.3076 32.8266 -24.7442 33.0224 -20.0634 37.7804C-15.3825 42.5383 -15.265 47.12 -15.167 51.5255C-15.0691 55.7548 -14.9516 59.7491 -10.8191 63.9589C-6.68664 68.1686 -2.69125 68.3448 1.53917 68.521C5.96544 68.7168 10.5288 68.9126 15.2097 73.6705C19.8906 78.4285 20.0081 83.0102 20.106 87.4157C20.2039 91.645 20.3214 95.6393 24.4539 99.849C28.5864 104.059 32.5818 104.235 36.8122 104.411C41.2385 104.607 45.8018 104.803 50.4827 109.561C55.1636 114.319 55.2811 118.9 55.379 123.306C55.477 127.535 55.5945 131.53 59.727 135.739C63.8595 139.949 67.8548 140.125 72.0853 140.301C76.5115 140.497 81.0749 140.693 85.7558 145.451C90.4366 150.209 90.5542 154.791 90.6521 159.196C90.75 163.425 90.8675 167.42 95 171.629L93.6095 173Z" fill="#F35D5D"/>
</g>
<defs>
<clipPath id="clip0_2_26">
<rect width="60" height="60" rx="10" fill="white"/>
</clipPath>
</defs>
</svg>
