<svg width="16" height="17" viewBox="0 0 16 17" fill="none" xmlns="http://www.w3.org/2000/svg">
<path fill-rule="evenodd" clip-rule="evenodd" d="M11.511 9.75128C11.3923 9.87413 11.3267 10.0387 11.3282 10.2095C11.3296 10.3802 11.3981 10.5436 11.5189 10.6644C11.6397 10.7851 11.8031 10.8536 11.9738 10.8551C12.1446 10.8566 12.3092 10.791 12.432 10.6723L14.3294 8.77488L14.3581 8.74492C14.4272 8.68392 14.4825 8.60893 14.5204 8.52493C14.5582 8.44093 14.5778 8.34984 14.5778 8.25769C14.5778 8.16555 14.5582 8.07446 14.5204 7.99046C14.4825 7.90646 14.4272 7.83147 14.3581 7.77047C14.3488 7.76021 14.3393 7.75022 14.3294 7.74051L12.432 5.84308C12.3719 5.78086 12.3001 5.73124 12.2206 5.6971C12.1411 5.66296 12.0556 5.645 11.9692 5.64424C11.8827 5.64349 11.7969 5.65997 11.7168 5.69273C11.6368 5.72548 11.5641 5.77384 11.5029 5.835C11.4417 5.89616 11.3934 5.96889 11.3606 6.04894C11.3279 6.12899 11.3114 6.21476 11.3121 6.30125C11.3129 6.38774 11.3309 6.47321 11.365 6.55268C11.3991 6.63215 11.4488 6.70402 11.511 6.76411L12.3532 7.60633H8.71466C8.54191 7.60633 8.37623 7.67495 8.25407 7.79711C8.13192 7.91926 8.06329 8.08494 8.06329 8.25769C8.06329 8.43045 8.13192 8.59612 8.25407 8.71828C8.37623 8.84043 8.54191 8.90906 8.71466 8.90906H12.3532L11.511 9.75128Z" fill="white"/>
<path fill-rule="evenodd" clip-rule="evenodd" d="M3.50354 1.7441C2.98528 1.7441 2.48825 1.94998 2.12178 2.31644C1.75532 2.68291 1.54944 3.17994 1.54944 3.6982V12.8173C1.54944 13.3356 1.75532 13.8326 2.12178 14.1991C2.48825 14.5656 2.98528 14.7714 3.50354 14.7714H9.69153C10.1234 14.7714 10.5376 14.5999 10.843 14.2945C11.1484 13.9891 11.3199 13.5749 11.3199 13.143V11.3407C11.0207 11.1678 10.8024 10.8832 10.7128 10.5494C10.6233 10.2156 10.6699 9.85993 10.8425 9.5605H8.71448C8.36897 9.5605 8.03762 9.42325 7.79331 9.17894C7.549 8.93463 7.41174 8.60328 7.41174 8.25777C7.41174 7.91226 7.549 7.58091 7.79331 7.3366C8.03762 7.09229 8.36897 6.95504 8.71448 6.95504H10.8425C10.7569 6.80682 10.7013 6.64318 10.679 6.47347C10.6567 6.30377 10.668 6.13133 10.7123 5.966C10.7567 5.80068 10.8331 5.64571 10.9374 5.50996C11.0417 5.37421 11.1717 5.26034 11.3199 5.17485V3.37252C11.3199 2.94063 11.1484 2.52644 10.843 2.22105C10.5376 1.91566 10.1234 1.7441 9.69153 1.7441H3.50354Z" fill="white"/>
</svg>
