<svg width="16" height="17" viewBox="0 0 16 17" fill="none" xmlns="http://www.w3.org/2000/svg">
<path fill-rule="evenodd" clip-rule="evenodd" d="M3.2597 2.09571C2.74144 2.09571 2.24441 2.30159 1.87795 2.66805C1.51148 3.03452 1.3056 3.53155 1.3056 4.04981V13.169C1.3056 13.6872 1.51148 14.1842 1.87795 14.5507C2.24441 14.9172 2.74144 15.1231 3.2597 15.1231H11.0761C11.5944 15.1231 12.0914 14.9172 12.4579 14.5507C12.8243 14.1842 13.0302 13.6872 13.0302 13.169V4.04981C13.0302 3.53155 12.8243 3.03452 12.4579 2.66805C12.0914 2.30159 11.5944 2.09571 11.0761 2.09571H3.2597ZM7.16791 6.00391C6.47689 6.00391 5.81418 6.27842 5.32556 6.76704C4.83694 7.25566 4.56244 7.91837 4.56244 8.60938C4.56244 9.3004 4.83694 9.96311 5.32556 10.4517C5.81418 10.9403 6.47689 11.2149 7.16791 11.2149C7.85892 11.2149 8.52163 10.9403 9.01025 10.4517C9.49887 9.96311 9.77338 9.3004 9.77338 8.60938C9.77338 7.91837 9.49887 7.25566 9.01025 6.76704C8.52163 6.27842 7.85892 6.00391 7.16791 6.00391ZM5.43918 13.6132C5.69126 13.3429 6.14135 13.169 7.16791 13.169C8.21987 13.169 8.66605 13.339 8.91357 13.6086C9.03186 13.7291 9.19231 13.7989 9.36108 13.8034C9.52986 13.8079 9.69378 13.7467 9.81829 13.6326C9.9428 13.5186 10.0182 13.3607 10.0285 13.1921C10.0388 13.0236 9.98333 12.8577 9.87369 12.7293C9.22688 12.0225 8.27002 11.8662 7.16791 11.8662C6.07296 11.8662 5.13043 12.0336 4.48623 12.7247C4.42789 12.7873 4.38245 12.8607 4.3525 12.9409C4.32255 13.021 4.30867 13.1063 4.31167 13.1918C4.31466 13.2772 4.33446 13.3613 4.36995 13.4392C4.40543 13.517 4.4559 13.5871 4.51847 13.6454C4.58104 13.7038 4.65449 13.7492 4.73463 13.7792C4.81476 13.8091 4.90001 13.823 4.9855 13.82C5.071 13.817 5.15507 13.7972 5.23291 13.7617C5.31075 13.7262 5.38084 13.6758 5.43918 13.6132Z" fill="white"/>
<path fill-rule="evenodd" clip-rule="evenodd" d="M5.86517 8.60938C5.86517 8.26388 6.00243 7.93252 6.24674 7.68821C6.49105 7.4439 6.8224 7.30665 7.16791 7.30665C7.51341 7.30665 7.84477 7.4439 8.08908 7.68821C8.33339 7.93252 8.47064 8.26388 8.47064 8.60938C8.47064 8.95489 8.33339 9.28624 8.08908 9.53055C7.84477 9.77486 7.51341 9.91212 7.16791 9.91212C6.8224 9.91212 6.49105 9.77486 6.24674 9.53055C6.00243 9.28624 5.86517 8.95489 5.86517 8.60938ZM12.7996 15.1231H13.0302C13.5485 15.1231 14.0455 14.9172 14.412 14.5507C14.7784 14.1842 14.9843 13.6872 14.9843 13.169V4.04981C14.9843 3.53155 14.7784 3.03452 14.412 2.66805C14.0455 2.30159 13.5485 2.09571 13.0302 2.09571H12.7996C13.0772 2.33996 13.2994 2.64061 13.4515 2.97758C13.6036 3.31456 13.682 3.68011 13.6816 4.04981V13.169C13.682 13.5387 13.6036 13.9042 13.4515 14.2412C13.2994 14.5782 13.0772 14.8788 12.7996 15.1231Z" fill="white"/>
</svg>
