<svg width="192" height="50" viewBox="0 0 192 50" fill="none" xmlns="http://www.w3.org/2000/svg">
<path d="M58.3307 39V15.16H63.1308L72.0588 27H69.8188L78.4908 15.16H83.2908V39H78.3308V20.632L80.3148 21.08L71.1308 32.92H70.4908L61.6268 21.08L63.2908 20.632V39H58.3307ZM92.5743 39.384C91.3156 39.384 90.2276 39.1813 89.3103 38.776C88.3929 38.3707 87.6889 37.7947 87.1983 37.048C86.7076 36.28 86.4622 35.3733 86.4622 34.328C86.4622 33.3467 86.6863 32.4827 87.1343 31.736C87.5823 30.968 88.2649 30.328 89.1823 29.816C90.1209 29.304 91.2836 28.9413 92.6703 28.728L98.0143 27.864V31.384L93.5343 32.184C92.8516 32.312 92.3289 32.536 91.9663 32.856C91.6036 33.1547 91.4223 33.592 91.4223 34.168C91.4223 34.7013 91.6249 35.1173 92.0303 35.416C92.4356 35.7147 92.9369 35.864 93.5343 35.864C94.3236 35.864 95.0169 35.6933 95.6143 35.352C96.2116 35.0107 96.6703 34.552 96.9903 33.976C97.3316 33.3787 97.5023 32.728 97.5023 32.024V27.48C97.5023 26.8187 97.2356 26.264 96.7023 25.816C96.1903 25.368 95.4863 25.144 94.5903 25.144C93.7369 25.144 92.9796 25.3787 92.3183 25.848C91.6783 26.3173 91.2089 26.936 90.9103 27.704L87.0703 25.88C87.4116 24.8987 87.9556 24.056 88.7023 23.352C89.4489 22.648 90.3449 22.104 91.3903 21.72C92.4356 21.336 93.5769 21.144 94.8142 21.144C96.2863 21.144 97.5876 21.4107 98.7183 21.944C99.8489 22.4773 100.724 23.224 101.342 24.184C101.982 25.1227 102.302 26.2213 102.302 27.48V39H97.8223V36.184L98.9103 35.992C98.3983 36.76 97.8329 37.4 97.2143 37.912C96.5956 38.4027 95.9023 38.7653 95.1343 39C94.3663 39.256 93.5129 39.384 92.5743 39.384ZM113.926 39.192C111.814 39.192 110.171 38.6267 108.998 37.496C107.846 36.344 107.27 34.744 107.27 32.696V25.688H104.326V21.528H104.486C105.382 21.528 106.065 21.304 106.534 20.856C107.025 20.408 107.27 19.736 107.27 18.84V17.56H112.07V21.528H116.166V25.688H112.07V32.376C112.07 32.9733 112.177 33.4747 112.39 33.88C112.603 34.264 112.934 34.552 113.382 34.744C113.83 34.936 114.385 35.032 115.046 35.032C115.195 35.032 115.366 35.0213 115.558 35C115.75 34.9787 115.953 34.9573 116.166 34.936V39C115.846 39.0427 115.483 39.0853 115.078 39.128C114.673 39.1707 114.289 39.192 113.926 39.192ZM127.395 39.384C125.539 39.384 123.928 38.9787 122.563 38.168C121.197 37.336 120.141 36.2267 119.395 34.84C118.648 33.4533 118.275 31.9173 118.275 30.232C118.275 28.4827 118.659 26.9253 119.427 25.56C120.216 24.1947 121.272 23.1173 122.595 22.328C123.917 21.5387 125.411 21.144 127.075 21.144C128.461 21.144 129.688 21.368 130.755 21.816C131.821 22.2427 132.717 22.8507 133.443 23.64C134.189 24.4293 134.755 25.3467 135.139 26.392C135.523 27.416 135.715 28.536 135.715 29.752C135.715 30.0933 135.693 30.4347 135.651 30.776C135.629 31.096 135.576 31.3733 135.491 31.608H122.403V28.088H132.771L130.499 29.752C130.712 28.8347 130.701 28.024 130.467 27.32C130.232 26.5947 129.816 26.0293 129.219 25.624C128.643 25.1973 127.928 24.984 127.075 24.984C126.243 24.984 125.528 25.1867 124.931 25.592C124.333 25.9973 123.885 26.5947 123.587 27.384C123.288 28.1733 123.171 29.1333 123.235 30.264C123.149 31.2453 123.267 32.1093 123.587 32.856C123.907 33.6027 124.397 34.1893 125.059 34.616C125.72 35.0213 126.52 35.224 127.459 35.224C128.312 35.224 129.037 35.0533 129.635 34.712C130.253 34.3707 130.733 33.9013 131.075 33.304L134.915 35.128C134.573 35.9813 134.029 36.728 133.283 37.368C132.557 38.008 131.693 38.5093 130.691 38.872C129.688 39.2133 128.589 39.384 127.395 39.384Z" fill="white"/>
<g clip-path="url(#clip0_114_638)">
<path fill-rule="evenodd" clip-rule="evenodd" d="M37.0739 15.418C37.5255 15.3437 37.9869 15.489 38.3158 15.8086C42.1397 19.5268 44.2456 24.5032 44.2456 29.821C44.2456 40.6047 35.4729 49.378 24.6896 49.378C15.7697 49.378 7.98844 43.339 5.7669 34.6924C5.34593 33.0519 5.13251 31.4131 5.13251 29.821C5.13251 26.6958 5.86257 23.6915 7.30245 20.8919C8.71946 18.1396 10.8031 15.7295 13.3283 13.9215C13.343 13.911 13.3579 13.9008 13.373 13.8908C13.466 13.8294 13.5654 13.7567 13.6707 13.6796L13.6815 13.6717C13.6922 13.6639 13.7029 13.6561 13.7136 13.6482C13.7557 13.6174 13.7978 13.5866 13.8401 13.5561C17.8553 10.6829 20.377 6.22884 20.7626 1.33308C20.8006 0.849904 21.0781 0.417941 21.5018 0.182334C21.9254 -0.0531764 22.4385 -0.0609882 22.8691 0.161503C27.8151 2.71788 31.4461 7.27389 32.8309 12.6612C33.252 14.3014 33.4654 15.9402 33.4654 17.5328C33.4654 18.3628 33.4113 19.1905 33.3038 20.0134C34.3824 18.8743 35.2992 17.5857 36.021 16.1836C36.2308 15.776 36.6215 15.492 37.0739 15.418ZM23.9409 35.9114C27.2465 35.9114 29.9262 33.2317 29.9262 29.9261C29.9262 26.6206 27.2465 23.9409 23.9409 23.9409C20.6354 23.9409 17.9557 26.6206 17.9557 29.9261C17.9557 33.2317 20.6354 35.9114 23.9409 35.9114Z" fill="#6359E9"/>
</g>
<defs>
<clipPath id="clip0_114_638">
<rect width="49.3782" height="49.3782" fill="white"/>
</clipPath>
</defs>
</svg>
