<svg width="40" height="50" viewBox="0 0 40 50" fill="none" xmlns="http://www.w3.org/2000/svg">
<path fill-rule="evenodd" clip-rule="evenodd" d="M32.0739 15.418C32.5255 15.3437 32.9869 15.489 33.3158 15.8086C37.1397 19.5268 39.2456 24.5032 39.2456 29.821C39.2456 40.6047 30.4729 49.378 19.6896 49.378C10.7697 49.378 2.98844 43.339 0.766901 34.6924C0.345933 33.0519 0.132507 31.4131 0.132507 29.821C0.132507 26.6958 0.862571 23.6915 2.30245 20.8919C3.71946 18.1396 5.80309 15.7295 8.32832 13.9215C8.34298 13.911 8.35793 13.9008 8.37297 13.8908C8.46604 13.8294 8.56543 13.7567 8.67069 13.6796L8.68149 13.6717C8.69219 13.6639 8.7029 13.6561 8.71361 13.6482C8.75567 13.6174 8.79778 13.5866 8.84013 13.5561C12.8553 10.6829 15.377 6.22884 15.7626 1.33308C15.8006 0.849904 16.0781 0.417941 16.5018 0.182334C16.9254 -0.0531764 17.4385 -0.0609882 17.8691 0.161503C22.8151 2.71788 26.4461 7.27389 27.8309 12.6612C28.252 14.3014 28.4654 15.9402 28.4654 17.5328C28.4654 18.3628 28.4113 19.1905 28.3038 20.0134C29.3824 18.8743 30.2992 17.5857 31.021 16.1836C31.2308 15.776 31.6215 15.492 32.0739 15.418ZM18.9409 35.9114C22.2465 35.9114 24.9262 33.2317 24.9262 29.9261C24.9262 26.6206 22.2465 23.9409 18.9409 23.9409C15.6354 23.9409 12.9557 26.6206 12.9557 29.9261C12.9557 33.2317 15.6354 35.9114 18.9409 35.9114Z" fill="#6359E9"/>
</svg>
